<?xml version="1.0" encoding="utf-8"?>
<!-- Generator: Adobe Illustrator 24.0.3, SVG Export Plug-In . SVG Version: 6.00 Build 0)  -->
<svg version="1.1" id="Layer_1" xmlns="http://www.w3.org/2000/svg" xmlns:xlink="http://www.w3.org/1999/xlink" x="0px" y="0px"
	 viewBox="0 0 390 220" style="enable-background:new 0 0 390 220;" xml:space="preserve">
<style type="text/css">
	.st0{fill:none;stroke:#FFFFFF;stroke-width:0.75;stroke-miterlimit:10;}
	.st1{fill:none;stroke:#000000;stroke-miterlimit:10;}
</style>
<g id="Layer_1_1_">
	<path d="M92.98,223.01V-15.5H13c-3.11,0.28-6.21,0.21-9.32,0h-26.4v10.47c1.66,27.17,0.76,54.41,0,81.63v56.9
		c0.33,5.78,0.63,11.56,0.55,17.35c-0.06,4.16-0.28,8.31-0.55,12.47v62.58H92.61C92.63,224.93,92.75,223.96,92.98,223.01z"/>
	<g>
		<path class="st0" d="M18.35,33.81c0,0,8.64-22.4,13.47-25.03S44.26,5.85,46.31,7.9c0-0.15,1.32,0.29,6.88-0.73
			S61.68,7.76,64.02,12c2.34,4.25,5.71,19.91,5.71,25.18s-4.54,14.78-10.69,22.98s-13.32,7.32-13.32,7.32s-10.98-0.88-15.96-5.71
			C24.79,56.94,18.5,37.47,18.35,33.81z"/>
		<path class="st0" d="M21.57,33.81c0,0,7.9-14.93,24.01-17.57c0.15,0.15,13.91-0.73,23.13,19.47c0.15,0-9.81,16.25-18.59,19.62
			c0,0-8.78,3.07-16.1-1.46C34.01,53.72,23.77,43.18,21.57,33.81z"/>
		<path class="st0" d="M45.14,51.67c0,0-7.67-1.25-9.81,0c0.15,0-2.07,1.76-1.32,2.2s6.15,3.36,11.13,2.41
			C45.29,56.26,45.14,51.67,45.14,51.67z"/>
		<path class="st0" d="M45.87,51.12l9.7,0.77c0,0-5.31,4.47-9.7,4.32C45.14,56.28,45.87,51.12,45.87,51.12z"/>
		<path class="st0" d="M34.6,21.47c0,0,4.87,0.68,4.49-1.27c0.2,0,0.03-2.26-1.74-1.34c-1.77,0.93-3.49,1.97-3.49,1.97
			S33.52,21.96,34.6,21.47z"/>
		<path class="st0" d="M46.02,16.98c0,0,1.56,3.14-1.98,3.61c-0.17,0-3.41,0.8-4.96,0.06c-0.04,0.11,0.55-2.77,0.45-2.74
			c-0.1,0.04,6.05-1.66,6.05-1.66L46.02,16.98z"/>
		<path class="st0" d="M53.14,19.22c0,0,0.91,2.22-3.81,1.74s-3.23-1.58-3.28-2.32c-0.04-0.74-0.53-2.34,1.42-2.39
			C49.43,16.2,52.85,17.37,53.14,19.22z"/>
		<path class="st0" d="M57.53,22.15c0,0-5.81,0.89-4.32-3.95c0.12,0.06,4.44,2.67,5.27,3.39S57.53,22.15,57.53,22.15z"/>
	</g>
	<g>
		<path class="st0" d="M17.03,107.04c0,0,8.64-22.4,13.47-25.03s12.44-2.93,14.49-0.88c0-0.15,1.32,0.29,6.88-0.73
			c5.56-1.02,8.49,0.59,10.83,4.83c2.34,4.25,5.71,19.91,5.71,25.18s-4.54,14.78-10.69,22.98s-13.32,7.32-13.32,7.32
			s-10.98-0.88-15.96-5.71S17.17,110.7,17.03,107.04z"/>
		<path class="st0" d="M20.25,107.04c0,0,7.9-14.93,24.01-17.57c0.15,0.15,13.91-0.73,23.13,19.47c0.15,0-9.81,16.25-18.59,19.62
			c0,0-8.78,3.07-16.1-1.46C32.69,126.95,22.44,116.41,20.25,107.04z"/>
		<path class="st0" d="M43.82,124.9c0,0-7.67-1.25-9.81,0c0.15,0-2.07,1.76-1.32,2.2s6.15,3.36,11.13,2.41
			C43.97,129.49,43.82,124.9,43.82,124.9z"/>
		<path class="st0" d="M44.55,124.34l9.7,0.77c0,0-5.31,4.47-9.7,4.32C43.82,129.5,44.55,124.34,44.55,124.34z"/>
		<path class="st0" d="M33.28,94.69c0,0,4.87,0.68,4.49-1.27c0.2,0,0.03-2.26-1.74-1.34c-1.77,0.93-3.49,1.97-3.49,1.97
			S32.2,95.18,33.28,94.69z"/>
		<path class="st0" d="M44.69,90.2c0,0,1.56,3.14-1.98,3.61c-0.17,0-3.41,0.8-4.96,0.06c-0.04,0.11,0.55-2.77,0.45-2.74
			c-0.1,0.04,6.05-1.66,6.05-1.66L44.69,90.2z"/>
		<path class="st0" d="M51.82,92.45c0,0,0.91,2.22-3.81,1.74c-4.71-0.48-3.23-1.58-3.28-2.32c-0.04-0.74-0.53-2.34,1.42-2.39
			S51.52,90.59,51.82,92.45z"/>
		<path class="st0" d="M56.21,95.38c0,0-5.81,0.89-4.32-3.95c0.12,0.06,4.44,2.67,5.27,3.39S56.21,95.38,56.21,95.38z"/>
	</g>
	<g>
		<path class="st0" d="M15.7,180.26c0,0,8.64-22.4,13.47-25.03s12.44-2.93,14.49-0.88c0-0.15,1.32,0.29,6.88-0.73
			c5.56-1.02,8.49,0.59,10.83,4.83c2.34,4.25,5.71,19.91,5.71,25.18s-4.54,14.78-10.69,22.98s-13.32,7.32-13.32,7.32
			s-10.98-0.88-15.96-5.71C22.14,203.39,15.85,183.92,15.7,180.26z"/>
		<path class="st0" d="M18.92,180.26c0,0,7.9-14.93,24.01-17.57c0.15,0.15,13.91-0.73,23.13,19.47c0.15,0-9.81,16.25-18.59,19.62
			c0,0-8.78,3.07-16.1-1.46C31.37,200.17,21.12,189.63,18.92,180.26z"/>
		<path class="st0" d="M42.49,198.12c0,0-7.67-1.25-9.81,0c0.15,0-2.07,1.76-1.32,2.2c0.76,0.44,6.15,3.36,11.13,2.41
			C42.64,202.71,42.49,198.12,42.49,198.12z"/>
		<path class="st0" d="M43.22,197.57l9.7,0.77c0,0-5.31,4.47-9.7,4.32C42.49,202.73,43.22,197.57,43.22,197.57z"/>
		<path class="st0" d="M31.95,167.92c0,0,4.87,0.68,4.49-1.27c0.2,0,0.03-2.26-1.74-1.34c-1.77,0.93-3.49,1.97-3.49,1.97
			S30.88,168.41,31.95,167.92z"/>
		<path class="st0" d="M43.37,163.43c0,0,1.56,3.14-1.98,3.61c-0.17,0-3.41,0.8-4.96,0.06c-0.04,0.11,0.55-2.77,0.45-2.74
			s6.05-1.66,6.05-1.66L43.37,163.43z"/>
		<path class="st0" d="M50.49,165.67c0,0,0.91,2.22-3.81,1.74c-4.71-0.48-3.23-1.58-3.28-2.32c-0.04-0.74-0.53-2.34,1.42-2.39
			C46.79,162.65,50.2,163.82,50.49,165.67z"/>
		<path class="st0" d="M54.89,168.6c0,0-5.81,0.89-4.32-3.95c0.12,0.06,4.44,2.67,5.27,3.39C56.67,168.76,54.89,168.6,54.89,168.6z"
			/>
	</g>
	<g>
		<path class="st0" d="M93.2,37.07c-2.78,0.13-5.93,0.86-8.37,2.19C80,41.89,71.36,64.29,71.36,64.29
			c0.15,3.66,6.44,23.13,11.42,27.96c2.63,2.56,6.94,4,10.42,4.8V37.07z"/>
		<path class="st0" d="M93.2,48.15c-12.48,4.56-18.63,16.14-18.63,16.14c2.2,9.37,12.44,19.91,12.44,20.05
			c2.02,1.25,4.16,1.92,6.19,2.24C93.2,86.58,93.2,48.15,93.2,48.15z"/>
		<path class="st0" d="M93.2,81.62c-1.94-0.1-3.93-0.03-4.87,0.52c0.15,0-2.07,1.76-1.32,2.2c0.51,0.29,3.07,1.68,6.19,2.3V81.62z"
			/>
		<path class="st0" d="M87.6,51.94c0,0,4.87,0.68,4.49-1.27c0.2,0,0.03-2.26-1.74-1.34c-1.77,0.93-3.49,1.97-3.49,1.97
			S86.53,52.43,87.6,51.94z"/>
	</g>
	<g>
		<path class="st0" d="M93.2,110.28c-3.07-0.08-6.86,0.65-9.71,2.2c-4.83,2.63-13.47,25.03-13.47,25.03
			c0.15,3.66,6.44,23.13,11.42,27.96c2.98,2.89,8.12,4.37,11.76,5.09V110.28z"/>
		<path class="st0" d="M93.2,120.92c-13.37,4.18-19.95,16.6-19.95,16.6c2.2,9.37,12.44,19.91,12.44,20.05
			c2.47,1.53,5.1,2.18,7.51,2.39C93.2,159.96,93.2,120.92,93.2,120.92z"/>
		<path class="st0" d="M93.2,154.94c-2.3-0.19-5.04-0.24-6.19,0.43c0.15,0-2.07,1.76-1.32,2.2c0.57,0.33,3.81,2.09,7.51,2.51V154.94
			z"/>
		<path class="st0" d="M86.28,125.17c0,0,4.87,0.68,4.49-1.27c0.2,0,0.03-2.26-1.74-1.34c-1.77,0.93-3.49,1.97-3.49,1.97
			S85.21,125.66,86.28,125.17z"/>
		<path class="st0" d="M93.2,121.06c-1.11,0.31-2.01,0.56-1.98,0.55c0.1-0.04-0.5,2.85-0.45,2.74c0.63,0.3,1.55,0.35,2.43,0.29
			V121.06z"/>
	</g>
	<g>
		<path class="st0" d="M93.15,222.32c0.11-0.36,0.22-0.71,0.33-1.07c-0.18-0.41-0.28-0.88-0.28-1.42v-36.24
			c-3.23-0.36-7.75,0.34-11.02,2.12c-4.83,2.63-13.47,25.03-13.47,25.03c0.06,1.39,1.23,7.23,2.65,11.51
			c2.48,0.07,4.77-1.1,7.26-0.94c4.69-0.06,9.56,2.04,14.3,1.95C92.99,222.94,93.05,222.63,93.15,222.32z"/>
		<path class="st0" d="M93.2,219.83v-26.07c-14.25,3.75-21.27,16.98-21.27,16.98c0.75,3.2,3.1,8.5,4.99,11.5
			c0.77,0.04,0.89-1.9,1.66-1.85c5.11,1.15,9.84,0.15,14.62-0.51C93.2,219.86,93.2,219.85,93.2,219.83z"/>
		<path class="st0" d="M84.96,198.39c0,0,4.87,0.68,4.49-1.27c0.2,0,0.03-2.26-1.74-1.34c-1.77,0.93-3.49,1.97-3.49,1.97
			S83.88,198.88,84.96,198.39z"/>
		<path class="st0" d="M93.2,193.92c-1.63,0.45-3.37,0.93-3.32,0.91c0.1-0.03-0.49,2.85-0.45,2.74c0.98,0.47,2.64,0.32,3.77,0.15
			V193.92z"/>
	</g>
	<g>
		<path class="st0" d="M15.89,45.07c-2.34-4.25-5.27-5.86-10.83-4.83c-2.79,0.51-4.51,0.66-5.54,0.7
			c-0.03,19.87-0.78,39.76-1.14,59.64c2.02-0.04,7.6-0.77,12.53-7.34c6.15-8.2,10.69-17.71,10.69-22.98S18.23,49.31,15.89,45.07z"/>
		<path class="st0" d="M-0.53,49.52c-0.14,13.21-0.53,26.43-0.84,39.64c2.04-0.3,3.36-0.76,3.36-0.76
			c8.78-3.37,18.74-19.62,18.59-19.62C13.46,53.2,3.65,50.16-0.53,49.52z"/>
		<path class="st0" d="M-1.26,84.26c-0.04,1.66-0.08,3.32-0.12,4.98c4.19-0.4,8.82-4.29,8.82-4.29L-1.26,84.26z"/>
		<path class="st0" d="M5.01,52.29c-0.29-1.82-3.57-2.97-5.54-2.97c-0.02,1.48-0.04,2.96-0.06,4.43c0.47,0.1,1.04,0.2,1.79,0.27
			C5.92,54.51,5.01,52.29,5.01,52.29z"/>
		<path class="st0" d="M9.4,55.22c0,0-5.81,0.89-4.32-3.95c0.12,0.06,4.44,2.67,5.27,3.39C11.19,55.37,9.4,55.22,9.4,55.22z"/>
	</g>
	<g>
		<path class="st0" d="M14.57,118.29c-2.34-4.25-5.27-5.86-10.83-4.83c-2.77,0.51-4.48,0.66-5.51,0.69
			c-0.01,1.86-0.02,3.71-0.02,5.57c0.02,10.46,1.13,20.89,1,31.34c-0.1,7.55-0.69,15.1-1.14,22.66c2.52-0.28,7.26-1.6,11.52-7.28
			c6.15-8.2,10.69-17.71,10.69-22.98S16.91,122.54,14.57,118.29z"/>
		<path class="st0" d="M-1.75,122.76c0.19,9.44,1.08,18.87,0.95,28.31c-0.05,3.68-0.22,7.36-0.43,11.04
			c1.17-0.25,1.88-0.49,1.88-0.49C9.43,158.25,19.39,142,19.24,142C12.2,126.55,2.49,123.44-1.75,122.76z"/>
		<path class="st0" d="M-1,157.61c-0.07,1.53-0.14,3.05-0.23,4.58c3.73-0.98,7.34-4.02,7.34-4.02L-1,157.61z"/>
		<path class="st0" d="M3.69,125.52c-0.28-1.79-3.46-2.93-5.44-2.97c0.03,1.5,0.07,2.99,0.13,4.49c0.41,0.08,0.91,0.15,1.51,0.21
			C4.59,127.74,3.69,125.52,3.69,125.52z"/>
		<path class="st0" d="M8.08,128.44c0,0-5.81,0.89-4.32-3.95c0.12,0.06,4.44,2.67,5.27,3.39S8.08,128.44,8.08,128.44z"/>
	</g>
	<g>
		<path class="st0" d="M8.44,220.35c3.36-0.27,6.7-0.51,10.05-0.31c0.3-1.24,0.46-2.37,0.46-3.35c0-5.27-3.37-20.93-5.71-25.18
			s-5.27-5.86-10.83-4.83c-2.23,0.41-3.76,0.58-4.82,0.66c0,10.54,0.88,21.39,0.81,32.08C1.77,219.54,5.11,219.91,8.44,220.35z"/>
		<path class="st0" d="M8.44,220.35c2.14-0.17,4.27-0.34,6.41-0.38c1.94-2.73,3.14-4.73,3.08-4.73
			c-6.63-14.51-15.6-18.15-20.17-19.1c0.25,7.73,0.69,15.55,0.63,23.29C1.76,219.54,5.1,219.9,8.44,220.35z"/>
		<path class="st0" d="M2.36,198.74c-0.25-1.56-2.68-2.62-4.62-2.9c0.05,1.52,0.1,3.03,0.16,4.56c0.21,0.03,0.41,0.05,0.65,0.08
			C3.27,200.96,2.36,198.74,2.36,198.74z"/>
		<path class="st0" d="M6.76,201.67c0,0-5.81,0.89-4.32-3.95c0.12,0.06,4.44,2.67,5.27,3.39C8.54,201.82,6.76,201.67,6.76,201.67z"
			/>
	</g>
	<g>
		<path class="st0" d="M93.2-0.83c-7.15-0.06-14.3-0.11-21.46-0.15c2.32,6.75,5.68,14.58,8.59,17.41c3.3,3.21,9.25,4.67,12.87,5.29
			C93.2,21.72,93.2-0.83,93.2-0.83z"/>
		<path class="st0" d="M93.2-0.83c-5.36-0.05-10.71-0.09-16.06-0.13c3.51,5.31,7.44,9.39,7.44,9.48c2.85,1.77,5.93,2.38,8.62,2.46
			C93.2,10.98,93.2-0.83,93.2-0.83z"/>
		<path class="st0" d="M93.2,6.01c-2.43-0.26-5.96-0.46-7.31,0.32c0.15,0-2.07,1.76-1.32,2.2c0.63,0.37,4.48,2.45,8.63,2.58V6.01z"
			/>
	</g>
	<g>
		<path class="st0" d="M9.51-1.52C5.68-1.6,1.85-1.71-1.98-1.79c0.71,8.65,1.13,17.32,1.33,25.98c2.58-0.78,5.99-2.59,9.13-6.78
			c4.5-6,8.13-12.7,9.76-17.94C15.33-0.82,12.43-1.23,9.51-1.52z"/>
		<path class="st0" d="M9.37-1.52C5.59-1.61,1.8-1.71-1.98-1.79c0.4,4.85,0.7,9.7,0.92,14.56c0.38-0.11,0.61-0.18,0.61-0.18
			C4.78,10.57,10.43,3.99,14.11-1C12.53-1.19,10.95-1.37,9.37-1.52z"/>
		<path class="st0" d="M-1.27,8.64c0.08,1.37,0.14,2.73,0.2,4.1C2.17,11.51,5,9.14,5,9.14L-1.27,8.64z"/>
	</g>
</g>
<g id="Layer_2_1_">
</g>
<line class="st1" x1="115.13" y1="58.02" x2="212.99" y2="57.45"/>
</svg>
