<?xml version="1.0" encoding="utf-8"?>
<!-- Generator: Adobe Illustrator 24.0.3, SVG Export Plug-In . SVG Version: 6.00 Build 0)  -->
<svg version="1.1" id="Layer_1" xmlns="http://www.w3.org/2000/svg" xmlns:xlink="http://www.w3.org/1999/xlink" x="0px" y="0px"
	 viewBox="0 0 390 220" style="enable-background:new 0 0 390 220;" xml:space="preserve">
<style type="text/css">
	.st0{fill:none;stroke:#000000;stroke-width:0.75;stroke-miterlimit:10;}
	.st1{fill:none;stroke:#333333;stroke-width:0.75;stroke-miterlimit:10;}
</style>
<g>
	<path class="st0" d="M44.98-3.01c-1.82-0.01-3.62,0.06-5.44,0c-0.35-0.01-0.69-0.06-1.01-0.13c-5.8,0.09-11.59,0.5-17.4,0.28
		C13.12-3.15,5.13-3.26-2.88-3.29c0.37,5.88-0.05,11.75,0.04,17.67C-0.56,20.57,2.4,27.01,5,29.54c5.09,4.94,16.31,5.83,16.31,5.83
		s7.33,0.9,13.61-7.48C41.2,19.51,45.84,9.79,45.84,4.4C45.84,2.73,45.51,0.04,44.98-3.01z"/>
	<path class="st0" d="M41.62-3.01c-0.69,0.01-1.38,0.02-2.08,0c-0.35-0.01-0.69-0.06-1.01-0.13c-5.8,0.09-11.59,0.5-17.4,0.28
		C13.91-3.12,6.69-3.23-0.54-3.27c-1.02,1.31-1.75,2.42-2.22,3.18c0.02,1.07,0.03,2.14,0.02,3.21c3.11,8.97,12.07,18.2,12.07,18.34
		c7.48,4.64,16.46,1.5,16.46,1.5c8.98-3.44,19.15-20.05,19-20.05C43.78,0.69,42.71-1.26,41.62-3.01z"/>
	<path class="st0" d="M20.71,19.21c0,0-7.84-1.28-10.02,0c0.15,0-2.12,1.8-1.35,2.24c0.77,0.45,6.28,3.43,11.37,2.46
		C20.86,23.91,20.71,19.21,20.71,19.21z"/>
	<path class="st0" d="M21.46,18.65l9.91,0.79c0,0-5.42,4.56-9.91,4.42C20.71,23.92,21.46,18.65,21.46,18.65z"/>
	<path class="st0" d="M98.07-3.55c-6.19,0.24-12.17,1.21-18.39,0.88c-5.49-0.29-10.86-0.29-16.31-0.23
		c-0.96,2.32-1.55,3.85-1.55,3.85c0.15,3.74,6.58,23.64,11.67,28.57c5.09,4.94,16.31,5.83,16.31,5.83s7.33,0.9,13.61-7.48
		c6.28-8.38,10.92-18.1,10.92-23.49c0-1.69-0.34-4.43-0.88-7.52C108.32-3.33,103.2-3.74,98.07-3.55z"/>
	<path class="st0" d="M98.07-3.55c-6.19,0.24-12.17,1.21-18.39,0.88c-4.04-0.21-8.01-0.26-12.01-0.25
		c-1.71,2.26-2.57,3.88-2.57,3.88c2.24,9.57,12.72,20.35,12.72,20.49c7.48,4.64,16.46,1.5,16.46,1.5c8.98-3.44,19.15-20.05,19-20.05
		c-1.06-2.33-2.18-4.37-3.34-6.18C105.98-3.48,102.03-3.7,98.07-3.55z"/>
	<path class="st0" d="M89.19,19.21c0,0-7.84-1.28-10.02,0c0.15,0-2.12,1.8-1.35,2.24c0.77,0.45,6.28,3.43,11.37,2.46
		C89.34,23.91,89.19,19.21,89.19,19.21z"/>
	<path class="st0" d="M89.93,18.65l9.91,0.79c0,0-5.42,4.56-9.91,4.42C89.19,23.92,89.93,18.65,89.93,18.65z"/>
	<path class="st0" d="M137.28-3.39c-0.29,0.04-0.58,0.08-0.89,0.08c-0.39,0-0.76-0.04-1.11-0.11c-0.89-0.01-1.78-0.03-2.67-0.04
		c-0.18,0-0.34-0.04-0.51-0.06c-1.11,2.66-1.82,4.48-1.82,4.48c0.15,3.74,6.58,23.64,11.67,28.57c5.09,4.94,16.31,5.83,16.31,5.83
		s7.33,0.9,13.61-7.48c6.28-8.38,10.92-18.1,10.92-23.49c0-1.59-0.31-4.12-0.79-6.99C167.09-2.69,152.19-3.16,137.28-3.39z"/>
	<path class="st0" d="M137.2-3.39c-0.24,0.03-0.48,0.07-0.75,0.07c-1.92,2.48-2.88,4.28-2.88,4.28
		c2.24,9.57,12.72,20.35,12.72,20.49c7.48,4.64,16.46,1.5,16.46,1.5c8.98-3.44,19.15-20.05,19-20.05c-0.94-2.05-1.92-3.88-2.93-5.53
		C164.94-2.77,151.08-3.18,137.2-3.39z"/>
	<path class="st0" d="M157.66,19.21c0,0-7.84-1.28-10.02,0c0.15,0-2.12,1.8-1.35,2.24c0.77,0.45,6.28,3.43,11.37,2.46
		C157.82,23.91,157.66,19.21,157.66,19.21z"/>
	<path class="st0" d="M158.41,18.65l9.91,0.79c0,0-5.42,4.56-9.91,4.42C157.66,23.92,158.41,18.65,158.41,18.65z"/>
	<path class="st0" d="M200.56-3.48c-1.11,2.65-1.8,4.44-1.8,4.44c0.15,3.74,6.58,23.64,11.67,28.57c5.09,4.94,16.31,5.83,16.31,5.83
		s7.33,0.9,13.61-7.48c6.28-8.38,10.92-18.1,10.92-23.49c0-1.75-0.37-4.62-0.94-7.84C233.8-1.61,217.21-2.74,200.56-3.48z"/>
	<path class="st0" d="M204.91-3.28c-1.9,2.46-2.85,4.24-2.85,4.24c2.24,9.57,12.72,20.35,12.72,20.49c7.48,4.64,16.46,1.5,16.46,1.5
		c8.98-3.44,19.15-20.05,19-20.05c-1.03-2.26-2.12-4.24-3.23-6.01C233.01-1.88,218.98-2.62,204.91-3.28z"/>
	<path class="st0" d="M226.14,19.21c0,0-7.84-1.28-10.02,0c0.15,0-2.12,1.8-1.35,2.24c0.77,0.45,6.28,3.43,11.37,2.46
		C226.3,23.91,226.14,19.21,226.14,19.21z"/>
	<path class="st0" d="M226.89,18.65l9.91,0.79c0,0-5.42,4.56-9.91,4.42C226.14,23.92,226.89,18.65,226.89,18.65z"/>
	<path class="st0" d="M297.14-3.32c-9.42-0.55-18.83,1.11-28.16-0.01c-1.07,2.56-1.74,4.29-1.74,4.29
		c0.15,3.74,6.58,23.64,11.67,28.57s16.31,5.83,16.31,5.83s7.33,0.9,13.61-7.48c6.28-8.38,10.92-18.1,10.92-23.49
		c0-1.55-0.29-3.98-0.75-6.76C311.85-1.68,304.09-2.91,297.14-3.32z"/>
	<path class="st0" d="M297.14-3.32c-8.01-0.47-16.02,0.66-23.97,0.32c-1.75,2.31-2.63,3.96-2.63,3.96
		c2.24,9.57,12.72,20.35,12.72,20.49c7.48,4.64,16.46,1.5,16.46,1.5c8.98-3.44,19.15-20.05,19-20.05c-0.85-1.86-1.74-3.55-2.65-5.08
		C309.75-1.99,303.15-2.96,297.14-3.32z"/>
	<path class="st0" d="M294.62,19.21c0,0-7.84-1.28-10.02,0c0.15,0-2.12,1.8-1.35,2.24c0.77,0.45,6.28,3.43,11.37,2.46
		C294.77,23.91,294.62,19.21,294.62,19.21z"/>
	<path class="st0" d="M295.37,18.65l9.91,0.79c0,0-5.42,4.56-9.91,4.42C294.62,23.92,295.37,18.65,295.37,18.65z"/>
	<path class="st0" d="M387.11-3.42c-7.06,0.67-14.05-0.01-21.22-0.17c-9.42-0.21-18.87-0.25-28.29-0.08
		c-1.15,2.75-1.88,4.63-1.88,4.63c0.15,3.74,6.58,23.64,11.67,28.57c5.09,4.94,16.31,5.83,16.31,5.83s7.33,0.9,13.61-7.48
		c6.28-8.38,10.92-18.1,10.92-23.49c0-1.73-0.36-4.55-0.92-7.73C387.24-3.35,387.18-3.39,387.11-3.42z"/>
	<path class="st0" d="M365.89-3.59c-7.88-0.17-15.77-0.24-23.66-0.16c-2.15,2.69-3.22,4.71-3.22,4.71
		c2.24,9.57,12.72,20.35,12.72,20.49c7.48,4.64,16.46,1.5,16.46,1.5c8.98-3.44,19.15-20.05,19-20.05c-1.05-2.3-2.16-4.31-3.3-6.11
		C377.92-2.95,371.96-3.46,365.89-3.59z"/>
	<path class="st0" d="M363.1,19.21c0,0-7.84-1.28-10.02,0c0.15,0-2.12,1.8-1.35,2.24c0.77,0.45,6.28,3.43,11.37,2.46
		C363.25,23.91,363.1,19.21,363.1,19.21z"/>
	<path class="st0" d="M363.85,18.65l9.91,0.79c0,0-5.42,4.56-9.91,4.42C363.1,23.92,363.85,18.65,363.85,18.65z"/>
	<path class="st0" d="M1.74,70.08c0,0,8.83-22.89,13.76-25.58c4.94-2.69,12.72-2.99,14.81-0.9c0-0.15,1.35,0.3,7.03-0.75
		c5.68-1.05,8.68,0.6,11.07,4.94s5.83,20.35,5.83,25.73c0,5.39-4.64,15.11-10.92,23.49s-13.61,7.48-13.61,7.48
		s-11.22-0.9-16.31-5.83S1.89,73.82,1.74,70.08z"/>
	<path class="st0" d="M5.03,70.08c0,0,8.08-15.26,24.53-17.95c0.15,0.15,14.21-0.75,23.64,19.9c0.15,0-10.02,16.61-19,20.05
		c0,0-8.98,3.14-16.46-1.5C17.74,90.42,7.27,79.65,5.03,70.08z"/>
	<path class="st0" d="M29.12,88.33c0,0-7.84-1.28-10.02,0c0.15,0-2.12,1.8-1.35,2.24s6.28,3.43,11.37,2.46
		C29.27,93.02,29.12,88.33,29.12,88.33z"/>
	<path class="st0" d="M29.86,87.76l9.91,0.79c0,0-5.42,4.56-9.91,4.42C29.12,93.03,29.86,87.76,29.86,87.76z"/>
	<path class="st0" d="M18.34,57.46c0,0,4.98,0.7,4.59-1.3c0.2,0,0.03-2.31-1.78-1.36s-3.57,2.01-3.57,2.01S17.25,57.96,18.34,57.46z
		"/>
	<path class="st0" d="M30.01,52.87c0,0,1.6,3.21-2.02,3.69c-0.17,0-3.49,0.81-5.07,0.06c-0.04,0.11,0.56-2.84,0.46-2.8
		c-0.1,0.04,6.18-1.7,6.18-1.7L30.01,52.87z"/>
	<path class="st0" d="M37.29,55.17c0,0,0.93,2.27-3.89,1.78c-4.82-0.49-3.3-1.62-3.35-2.37c-0.05-0.76-0.54-2.39,1.45-2.44
		S36.99,53.27,37.29,55.17z"/>
	<path class="st0" d="M41.78,58.16c0,0-5.94,0.91-4.42-4.03c0.12,0.06,4.54,2.73,5.39,3.46C43.6,58.32,41.78,58.16,41.78,58.16z"/>
	<path class="st0" d="M70.22,70.08c0,0,8.83-22.89,13.76-25.58c4.94-2.69,12.72-2.99,14.81-0.9c0-0.15,1.35,0.3,7.03-0.75
		c5.68-1.05,8.68,0.6,11.07,4.94c2.39,4.34,5.83,20.35,5.83,25.73c0,5.39-4.64,15.11-10.92,23.49s-13.61,7.48-13.61,7.48
		s-11.22-0.9-16.31-5.83C76.8,93.71,70.37,73.82,70.22,70.08z"/>
	<path class="st0" d="M73.51,70.08c0,0,8.08-15.26,24.53-17.95c0.15,0.15,14.21-0.75,23.64,19.9c0.15,0-10.02,16.61-19,20.05
		c0,0-8.98,3.14-16.46-1.5C86.22,90.42,75.75,79.65,73.51,70.08z"/>
	<path class="st0" d="M97.59,88.33c0,0-7.84-1.28-10.02,0c0.15,0-2.12,1.8-1.35,2.24c0.77,0.45,6.28,3.43,11.37,2.46
		C97.75,93.02,97.59,88.33,97.59,88.33z"/>
	<path class="st0" d="M98.34,87.76l9.91,0.79c0,0-5.42,4.56-9.91,4.42C97.59,93.03,98.34,87.76,98.34,87.76z"/>
	<path class="st0" d="M86.82,57.46c0,0,4.98,0.7,4.59-1.3c0.2,0,0.03-2.31-1.78-1.36s-3.57,2.01-3.57,2.01S85.72,57.96,86.82,57.46z
		"/>
	<path class="st0" d="M98.49,52.87c0,0,1.6,3.21-2.02,3.69c-0.17,0-3.49,0.81-5.07,0.06c-0.04,0.11,0.56-2.84,0.46-2.8
		c-0.1,0.04,6.18-1.7,6.18-1.7L98.49,52.87z"/>
	<path class="st0" d="M105.77,55.17c0,0,0.93,2.27-3.89,1.78c-4.82-0.49-3.3-1.62-3.35-2.37c-0.05-0.76-0.54-2.39,1.45-2.44
		C101.98,52.07,105.47,53.27,105.77,55.17z"/>
	<path class="st0" d="M110.26,58.16c0,0-5.94,0.91-4.42-4.03c0.12,0.06,4.54,2.73,5.39,3.46C112.08,58.32,110.26,58.16,110.26,58.16
		z"/>
	<path class="st0" d="M138.69,70.08c0,0,8.83-22.89,13.76-25.58c4.94-2.69,12.72-2.99,14.81-0.9c0-0.15,1.35,0.3,7.03-0.75
		c5.68-1.05,8.68,0.6,11.07,4.94c2.39,4.34,5.83,20.35,5.83,25.73c0,5.39-4.64,15.11-10.92,23.49s-13.61,7.48-13.61,7.48
		s-11.22-0.9-16.31-5.83C145.28,93.71,138.84,73.82,138.69,70.08z"/>
	<path class="st0" d="M141.99,70.08c0,0,8.08-15.26,24.53-17.95c0.15,0.15,14.21-0.75,23.64,19.9c0.15,0-10.02,16.61-19,20.05
		c0,0-8.98,3.14-16.46-1.5C154.7,90.42,144.23,79.65,141.99,70.08z"/>
	<path class="st0" d="M166.07,88.33c0,0-7.84-1.28-10.02,0c0.15,0-2.12,1.8-1.35,2.24c0.77,0.45,6.28,3.43,11.37,2.46
		C166.22,93.02,166.07,88.33,166.07,88.33z"/>
	<path class="st0" d="M166.82,87.76l9.91,0.79c0,0-5.42,4.56-9.91,4.42C166.07,93.03,166.82,87.76,166.82,87.76z"/>
	<path class="st0" d="M155.3,57.46c0,0,4.98,0.7,4.59-1.3c0.2,0,0.03-2.31-1.78-1.36s-3.57,2.01-3.57,2.01S154.2,57.96,155.3,57.46z
		"/>
	<path class="st0" d="M166.97,52.87c0,0,1.6,3.21-2.02,3.69c-0.17,0-3.49,0.81-5.07,0.06c-0.04,0.11,0.56-2.84,0.46-2.8
		c-0.1,0.04,6.18-1.7,6.18-1.7L166.97,52.87z"/>
	<path class="st0" d="M174.25,55.17c0,0,0.93,2.27-3.89,1.78c-4.82-0.49-3.3-1.62-3.35-2.37c-0.05-0.76-0.54-2.39,1.45-2.44
		S173.95,53.27,174.25,55.17z"/>
	<path class="st0" d="M178.74,58.16c0,0-5.94,0.91-4.42-4.03c0.12,0.06,4.54,2.73,5.39,3.46C180.56,58.32,178.74,58.16,178.74,58.16
		z"/>
	<path class="st0" d="M207.17,70.08c0,0,8.83-22.89,13.76-25.58c4.94-2.69,12.72-2.99,14.81-0.9c0-0.15,1.35,0.3,7.03-0.75
		c5.68-1.05,8.68,0.6,11.07,4.94s5.83,20.35,5.83,25.73c0,5.39-4.64,15.11-10.92,23.49c-6.28,8.38-13.61,7.48-13.61,7.48
		s-11.22-0.9-16.31-5.83C213.75,93.71,207.32,73.82,207.17,70.08z"/>
	<path class="st0" d="M210.46,70.08c0,0,8.08-15.26,24.53-17.95c0.15,0.15,14.21-0.75,23.64,19.9c0.15,0-10.02,16.61-19,20.05
		c0,0-8.98,3.14-16.46-1.5C223.18,90.42,212.71,79.65,210.46,70.08z"/>
	<path class="st0" d="M234.55,88.33c0,0-7.84-1.28-10.02,0c0.15,0-2.12,1.8-1.35,2.24s6.28,3.43,11.37,2.46
		C234.7,93.02,234.55,88.33,234.55,88.33z"/>
	<path class="st0" d="M235.3,87.76l9.91,0.79c0,0-5.42,4.56-9.91,4.42C234.55,93.03,235.3,87.76,235.3,87.76z"/>
	<path class="st0" d="M223.78,57.46c0,0,4.98,0.7,4.59-1.3c0.2,0,0.03-2.31-1.78-1.36s-3.57,2.01-3.57,2.01
		S222.68,57.96,223.78,57.46z"/>
	<path class="st0" d="M235.45,52.87c0,0,1.6,3.21-2.02,3.69c-0.17,0-3.49,0.81-5.07,0.06c-0.04,0.11,0.56-2.84,0.46-2.8
		c-0.1,0.04,6.18-1.7,6.18-1.7L235.45,52.87z"/>
	<path class="st0" d="M242.73,55.17c0,0,0.93,2.27-3.89,1.78c-4.82-0.49-3.3-1.62-3.35-2.37c-0.05-0.76-0.54-2.39,1.45-2.44
		S242.43,53.27,242.73,55.17z"/>
	<path class="st0" d="M247.21,58.16c0,0-5.94,0.91-4.42-4.03c0.12,0.06,4.54,2.73,5.39,3.46C249.04,58.32,247.21,58.16,247.21,58.16
		z"/>
	<path class="st0" d="M275.65,70.08c0,0,8.83-22.89,13.76-25.58c4.94-2.69,12.72-2.99,14.81-0.9c0-0.15,1.35,0.3,7.03-0.75
		c5.68-1.05,8.68,0.6,11.07,4.94c2.39,4.34,5.83,20.35,5.83,25.73c0,5.39-4.64,15.11-10.92,23.49s-13.61,7.48-13.61,7.48
		s-11.22-0.9-16.31-5.83S275.8,73.82,275.65,70.08z"/>
	<path class="st0" d="M278.94,70.08c0,0,8.08-15.26,24.53-17.95c0.15,0.15,14.21-0.75,23.64,19.9c0.15,0-10.02,16.61-19,20.05
		c0,0-8.98,3.14-16.46-1.5C291.66,90.42,281.19,79.65,278.94,70.08z"/>
	<path class="st0" d="M303.03,88.33c0,0-7.84-1.28-10.02,0c0.15,0-2.12,1.8-1.35,2.24s6.28,3.43,11.37,2.46
		C303.18,93.02,303.03,88.33,303.03,88.33z"/>
	<path class="st0" d="M303.77,87.76l9.91,0.79c0,0-5.42,4.56-9.91,4.42C303.03,93.03,303.77,87.76,303.77,87.76z"/>
	<path class="st0" d="M292.26,57.46c0,0,4.98,0.7,4.59-1.3c0.2,0,0.03-2.31-1.78-1.36s-3.57,2.01-3.57,2.01
		S291.16,57.96,292.26,57.46z"/>
	<path class="st0" d="M303.92,52.87c0,0,1.6,3.21-2.02,3.69c-0.17,0-3.49,0.81-5.07,0.06c-0.04,0.11,0.56-2.84,0.46-2.8
		c-0.1,0.04,6.18-1.7,6.18-1.7L303.92,52.87z"/>
	<path class="st0" d="M311.2,55.17c0,0,0.93,2.27-3.89,1.78c-4.82-0.49-3.3-1.62-3.35-2.37c-0.05-0.76-0.54-2.39,1.45-2.44
		S310.91,53.27,311.2,55.17z"/>
	<path class="st0" d="M315.69,58.16c0,0-5.94,0.91-4.42-4.03c0.12,0.06,4.54,2.73,5.39,3.46S315.69,58.16,315.69,58.16z"/>
	<path class="st0" d="M392.43,72.73c-0.65-5.5-0.71-11.03-0.25-16.64c0.08-0.96,0.32-1.78,0.68-2.47c0.01-0.04,0.03-0.07,0.04-0.11
		c-0.72-2.47-1.45-4.54-2.1-5.73c-2.39-4.34-5.39-5.98-11.07-4.94c-5.68,1.05-7.03,0.6-7.03,0.75c-2.09-2.09-9.87-1.8-14.81,0.9
		c-4.94,2.69-13.76,25.58-13.76,25.58c0.15,3.74,6.58,23.64,11.67,28.57c5.09,4.94,16.31,5.83,16.31,5.83s7.33,0.9,13.61-7.48
		c2.63-3.5,4.96-7.24,6.8-10.8C392.47,81.71,392.43,77.22,392.43,72.73z"/>
	<path class="st0" d="M392.43,72.73c-0.29-2.46-0.44-4.93-0.51-7.4c-9.02-13.74-19.84-13.07-19.97-13.2
		c-16.46,2.69-24.53,17.95-24.53,17.95c2.24,9.57,12.72,20.35,12.72,20.49c7.48,4.64,16.46,1.5,16.46,1.5
		c5.84-2.24,12.18-10.05,15.86-15.23C392.45,75.47,392.43,74.1,392.43,72.73z"/>
	<path class="st0" d="M371.51,88.33c0,0-7.84-1.28-10.02,0c0.15,0-2.12,1.8-1.35,2.24s6.28,3.43,11.37,2.46
		C371.66,93.02,371.51,88.33,371.51,88.33z"/>
	<path class="st0" d="M372.25,87.76l9.91,0.79c0,0-5.42,4.56-9.91,4.42C371.51,93.03,372.25,87.76,372.25,87.76z"/>
	<path class="st0" d="M360.73,57.46c0,0,4.98,0.7,4.59-1.3c0.2,0,0.03-2.31-1.78-1.36s-3.57,2.01-3.57,2.01
		S359.64,57.96,360.73,57.46z"/>
	<path class="st0" d="M372.4,52.87c0,0,1.6,3.21-2.02,3.69c-0.17,0-3.49,0.81-5.07,0.06c-0.04,0.11,0.56-2.84,0.46-2.8
		c-0.1,0.04,6.18-1.7,6.18-1.7L372.4,52.87z"/>
	<path class="st0" d="M379.68,55.17c0,0,0.93,2.27-3.89,1.78c-4.82-0.49-3.3-1.62-3.35-2.37c-0.05-0.76-0.54-2.39,1.45-2.44
		C375.89,52.07,379.38,53.27,379.68,55.17z"/>
	<path class="st0" d="M384.17,58.16c0,0-5.94,0.91-4.42-4.03c0.12,0.06,4.54,2.73,5.39,3.46C385.99,58.32,384.17,58.16,384.17,58.16
		z"/>
	<path class="st0" d="M32,116.9c-2.39-4.34-5.39-5.98-11.07-4.94c-5.68,1.05-7.03,0.6-7.03,0.75c-2.09-2.09-9.87-1.8-14.81,0.9
		c-0.67,0.36-1.4,1.1-2.18,2.09c-0.03,4.42-0.2,8.82-0.39,13.22c0.04,3.87-0.03,7.76,0.03,11.67c0.15,9.03,0.29,18.05,0.34,27.07
		c0.03,0.03,0.07,0.08,0.1,0.11c5.09,4.94,16.31,5.83,16.31,5.83s7.33,0.9,13.61-7.48c6.28-8.38,10.92-18.1,10.92-23.49
		S34.39,121.24,32,116.9z"/>
	<path class="st0" d="M13.15,121.24c-7.09,1.16-12.63,4.66-16.63,8.26c0.03,3.68-0.03,7.37,0.03,11.09
		c0.08,4.55,0.15,9.1,0.21,13.64c2.49,3.22,4.56,5.39,4.56,5.46c7.48,4.64,16.46,1.5,16.46,1.5c8.98-3.44,19.15-20.05,19-20.05
		C27.36,120.49,13.3,121.39,13.15,121.24z"/>
	<path class="st0" d="M12.7,157.44c0,0-7.84-1.28-10.02,0c0.15,0-2.12,1.8-1.35,2.24s6.28,3.43,11.37,2.46
		C12.85,162.13,12.7,157.44,12.7,157.44z"/>
	<path class="st0" d="M13.45,156.87l9.91,0.79c0,0-5.42,4.56-9.91,4.42C12.7,162.15,13.45,156.87,13.45,156.87z"/>
	<path class="st1" d="M1.93,126.57c0,0,4.98,0.7,4.59-1.3c0.2,0,0.03-2.31-1.78-1.36s-3.57,2.01-3.57,2.01S0.83,127.07,1.93,126.57z
		"/>
	<path class="st0" d="M13.6,121.99c0,0,1.6,3.21-2.02,3.69c-0.17,0-3.49,0.81-5.07,0.06c-0.04,0.11,0.56-2.84,0.46-2.8
		s6.18-1.7,6.18-1.7L13.6,121.99z"/>
	<path class="st0" d="M20.88,124.28c0,0,0.93,2.27-3.89,1.78s-3.3-1.62-3.35-2.37s-0.54-2.39,1.45-2.44S20.58,122.38,20.88,124.28z"
		/>
	<path class="st0" d="M25.37,127.27c0,0-5.94,0.91-4.42-4.03c0.12,0.06,4.54,2.73,5.39,3.46C27.19,127.43,25.37,127.27,25.37,127.27
		z"/>
	<path class="st0" d="M53.8,139.19c0,0,8.83-22.89,13.76-25.58c4.94-2.69,12.72-2.99,14.81-0.9c0-0.15,1.35,0.3,7.03-0.75
		c5.68-1.05,8.68,0.6,11.07,4.94c2.39,4.34,5.83,20.35,5.83,25.73c0,5.39-4.64,15.11-10.92,23.49c-6.28,8.38-13.61,7.48-13.61,7.48
		s-11.22-0.9-16.31-5.83S53.95,142.93,53.8,139.19z"/>
	<path class="st0" d="M57.09,139.19c0,0,8.08-15.26,24.53-17.95c0.15,0.15,14.21-0.75,23.64,19.9c0.15,0-10.02,16.61-19,20.05
		c0,0-8.98,3.14-16.46-1.5C69.81,159.53,59.34,148.76,57.09,139.19z"/>
	<path class="st0" d="M81.18,157.44c0,0-7.84-1.28-10.02,0c0.15,0-2.12,1.8-1.35,2.24s6.28,3.43,11.37,2.46
		C81.33,162.13,81.18,157.44,81.18,157.44z"/>
	<path class="st0" d="M81.93,156.87l9.91,0.79c0,0-5.42,4.56-9.91,4.42C81.18,162.15,81.93,156.87,81.93,156.87z"/>
	<path class="st0" d="M70.41,126.57c0,0,4.98,0.7,4.59-1.3c0.2,0,0.03-2.31-1.78-1.36c-1.81,0.95-3.57,2.01-3.57,2.01
		S69.31,127.07,70.41,126.57z"/>
	<path class="st0" d="M82.08,121.99c0,0,1.6,3.21-2.02,3.69c-0.17,0-3.49,0.81-5.07,0.06c-0.04,0.11,0.56-2.84,0.46-2.8
		c-0.1,0.04,6.18-1.7,6.18-1.7L82.08,121.99z"/>
	<path class="st0" d="M89.36,124.28c0,0,0.93,2.27-3.89,1.78s-3.3-1.62-3.35-2.37s-0.54-2.39,1.45-2.44
		C85.57,121.19,89.06,122.38,89.36,124.28z"/>
	<path class="st0" d="M93.84,127.27c0,0-5.94,0.91-4.42-4.03c0.12,0.06,4.54,2.73,5.39,3.46C95.67,127.43,93.84,127.27,93.84,127.27
		z"/>
	<path class="st0" d="M122.28,139.19c0,0,8.83-22.89,13.76-25.58c4.94-2.69,12.72-2.99,14.81-0.9c0-0.15,1.35,0.3,7.03-0.75
		s8.68,0.6,11.07,4.94c2.39,4.34,5.83,20.35,5.83,25.73c0,5.39-4.64,15.11-10.92,23.49c-6.28,8.38-13.61,7.48-13.61,7.48
		s-11.22-0.9-16.31-5.83C128.86,162.83,122.43,142.93,122.28,139.19z"/>
	<path class="st0" d="M125.57,139.19c0,0,8.08-15.26,24.53-17.95c0.15,0.15,14.21-0.75,23.64,19.9c0.15,0-10.02,16.61-19,20.05
		c0,0-8.98,3.14-16.46-1.5C138.29,159.53,127.81,148.76,125.57,139.19z"/>
	<path class="st0" d="M149.66,157.44c0,0-7.84-1.28-10.02,0c0.15,0-2.12,1.8-1.35,2.24s6.28,3.43,11.37,2.46
		C149.81,162.13,149.66,157.44,149.66,157.44z"/>
	<path class="st0" d="M150.4,156.87l9.91,0.79c0,0-5.42,4.56-9.91,4.42C149.66,162.15,150.4,156.87,150.4,156.87z"/>
	<path class="st0" d="M138.89,126.57c0,0,4.98,0.7,4.59-1.3c0.2,0,0.03-2.31-1.78-1.36s-3.57,2.01-3.57,2.01
		S137.79,127.07,138.89,126.57z"/>
	<path class="st0" d="M150.55,121.99c0,0,1.6,3.21-2.02,3.69c-0.17,0-3.49,0.81-5.07,0.06c-0.04,0.11,0.56-2.84,0.46-2.8
		c-0.1,0.04,6.18-1.7,6.18-1.7L150.55,121.99z"/>
	<path class="st0" d="M157.83,124.28c0,0,0.93,2.27-3.89,1.78c-4.82-0.49-3.3-1.62-3.35-2.37c-0.05-0.76-0.54-2.39,1.45-2.44
		S157.53,122.38,157.83,124.28z"/>
	<path class="st0" d="M162.32,127.27c0,0-5.94,0.91-4.42-4.03c0.12,0.06,4.54,2.73,5.39,3.46
		C164.14,127.43,162.32,127.27,162.32,127.27z"/>
	<path class="st0" d="M190.76,139.19c0,0,8.83-22.89,13.76-25.58c4.94-2.69,12.72-2.99,14.81-0.9c0-0.15,1.35,0.3,7.03-0.75
		c5.68-1.05,8.68,0.6,11.07,4.94c2.39,4.34,5.83,20.35,5.83,25.73c0,5.39-4.64,15.11-10.92,23.49s-13.61,7.48-13.61,7.48
		s-11.22-0.9-16.31-5.83C197.34,162.83,190.91,142.93,190.76,139.19z"/>
	<path class="st0" d="M194.05,139.19c0,0,8.08-15.26,24.53-17.95c0.15,0.15,14.21-0.75,23.64,19.9c0.15,0-10.02,16.61-19,20.05
		c0,0-8.98,3.14-16.46-1.5C206.76,159.53,196.29,148.76,194.05,139.19z"/>
	<path class="st0" d="M218.13,157.44c0,0-7.84-1.28-10.02,0c0.15,0-2.12,1.8-1.35,2.24s6.28,3.43,11.37,2.46
		C218.29,162.13,218.13,157.44,218.13,157.44z"/>
	<path class="st0" d="M218.88,156.87l9.91,0.79c0,0-5.42,4.56-9.91,4.42C218.13,162.15,218.88,156.87,218.88,156.87z"/>
	<path class="st0" d="M207.36,126.57c0,0,4.98,0.7,4.59-1.3c0.2,0,0.03-2.31-1.78-1.36s-3.57,2.01-3.57,2.01
		S206.27,127.07,207.36,126.57z"/>
	<path class="st0" d="M219.03,121.99c0,0,1.6,3.21-2.02,3.69c-0.17,0-3.49,0.81-5.07,0.06c-0.04,0.11,0.56-2.84,0.46-2.8
		s6.18-1.7,6.18-1.7L219.03,121.99z"/>
	<path class="st0" d="M226.31,124.28c0,0,0.93,2.27-3.89,1.78c-4.82-0.49-3.3-1.62-3.35-2.37c-0.05-0.76-0.54-2.39,1.45-2.44
		C222.52,121.19,226.01,122.38,226.31,124.28z"/>
	<path class="st0" d="M230.8,127.27c0,0-5.94,0.91-4.42-4.03c0.12,0.06,4.54,2.73,5.39,3.46
		C232.62,127.43,230.8,127.27,230.8,127.27z"/>
	<path class="st0" d="M259.24,139.19c0,0,8.83-22.89,13.76-25.58c4.94-2.69,12.72-2.99,14.81-0.9c0-0.15,1.35,0.3,7.03-0.75
		c5.68-1.05,8.68,0.6,11.07,4.94c2.39,4.34,5.83,20.35,5.83,25.73c0,5.39-4.64,15.11-10.92,23.49s-13.61,7.48-13.61,7.48
		s-11.22-0.9-16.31-5.83S259.39,142.93,259.24,139.19z"/>
	<path class="st0" d="M262.53,139.19c0,0,8.08-15.26,24.53-17.95c0.15,0.15,14.21-0.75,23.64,19.9c0.15,0-10.02,16.61-19,20.05
		c0,0-8.98,3.14-16.46-1.5C275.24,159.53,264.77,148.76,262.53,139.19z"/>
	<path class="st0" d="M286.61,157.44c0,0-7.84-1.28-10.02,0c0.15,0-2.12,1.8-1.35,2.24s6.28,3.43,11.37,2.46
		C286.77,162.13,286.61,157.44,286.61,157.44z"/>
	<path class="st0" d="M287.36,156.87l9.91,0.79c0,0-5.42,4.56-9.91,4.42C286.61,162.15,287.36,156.87,287.36,156.87z"/>
	<path class="st0" d="M275.84,126.57c0,0,4.98,0.7,4.59-1.3c0.2,0,0.03-2.31-1.78-1.36s-3.57,2.01-3.57,2.01
		S274.74,127.07,275.84,126.57z"/>
	<path class="st0" d="M287.51,121.99c0,0,1.6,3.21-2.02,3.69c-0.17,0-3.49,0.81-5.07,0.06c-0.04,0.11,0.56-2.84,0.46-2.8
		c-0.1,0.04,6.18-1.7,6.18-1.7L287.51,121.99z"/>
	<path class="st0" d="M294.79,124.28c0,0,0.93,2.27-3.89,1.78c-4.82-0.49-3.3-1.62-3.35-2.37c-0.05-0.76-0.54-2.39,1.45-2.44
		S294.49,122.38,294.79,124.28z"/>
	<path class="st0" d="M299.28,127.27c0,0-5.94,0.91-4.42-4.03c0.12,0.06,4.54,2.73,5.39,3.46
		C301.1,127.43,299.28,127.27,299.28,127.27z"/>
	<path class="st0" d="M327.71,139.19c0,0,8.83-22.89,13.76-25.58c4.94-2.69,12.72-2.99,14.81-0.9c0-0.15,1.35,0.3,7.03-0.75
		s8.68,0.6,11.07,4.94c2.39,4.34,5.83,20.35,5.83,25.73c0,5.39-4.64,15.11-10.92,23.49c-6.28,8.38-13.61,7.48-13.61,7.48
		s-11.22-0.9-16.31-5.83C334.3,162.83,327.86,142.93,327.71,139.19z"/>
	<path class="st0" d="M331.01,139.19c0,0,8.08-15.26,24.53-17.95c0.15,0.15,14.21-0.75,23.64,19.9c0.15,0-10.02,16.61-19,20.05
		c0,0-8.98,3.14-16.46-1.5C343.72,159.53,333.25,148.76,331.01,139.19z"/>
	<path class="st0" d="M355.09,157.44c0,0-7.84-1.28-10.02,0c0.15,0-2.12,1.8-1.35,2.24s6.28,3.43,11.37,2.46
		C355.24,162.13,355.09,157.44,355.09,157.44z"/>
	<path class="st0" d="M355.84,156.87l9.91,0.79c0,0-5.42,4.56-9.91,4.42C355.09,162.15,355.84,156.87,355.84,156.87z"/>
	<path class="st0" d="M344.32,126.57c0,0,4.98,0.7,4.59-1.3c0.2,0,0.03-2.31-1.78-1.36c-1.81,0.95-3.57,2.01-3.57,2.01
		S343.22,127.07,344.32,126.57z"/>
	<path class="st0" d="M355.99,121.99c0,0,1.6,3.21-2.02,3.69c-0.17,0-3.49,0.81-5.07,0.06c-0.04,0.11,0.56-2.84,0.46-2.8
		c-0.1,0.04,6.18-1.7,6.18-1.7L355.99,121.99z"/>
	<path class="st0" d="M363.27,124.28c0,0,0.93,2.27-3.89,1.78c-4.82-0.49-3.3-1.62-3.35-2.37s-0.54-2.39,1.45-2.44
		C359.48,121.19,362.97,122.38,363.27,124.28z"/>
	<path class="st0" d="M367.76,127.27c0,0-5.94,0.91-4.42-4.03c0.12,0.06,4.54,2.73,5.39,3.46
		C369.58,127.43,367.76,127.27,367.76,127.27z"/>
	<path class="st0" d="M49.59,186.01c-2.39-4.34-5.39-5.98-11.07-4.94c-5.68,1.05-7.03,0.6-7.03,0.75c-2.09-2.09-9.87-1.8-14.81,0.9
		c-4.94,2.69-13.76,25.58-13.76,25.58c0.08,1.88,1.74,7.86,4.03,13.96c5.69,0.14,11.47,0.6,17.25,0.98c1.69-0.13,3.39-0.18,5.1-0.21
		c2.85-0.22,5.7-0.4,8.56-0.07c4.9-0.71,9.72-0.82,14.68-1.1c1.81-3.96,2.88-7.54,2.88-10.13
		C55.42,206.36,51.98,190.35,49.59,186.01z"/>
	<path class="st0" d="M30.74,190.35C14.28,193.04,6.2,208.3,6.2,208.3c1.17,4.99,4.57,10.29,7.56,14.26
		c3.45,0.2,6.91,0.46,10.38,0.69c1.71-0.13,3.43-0.19,5.15-0.21c2.87-0.22,5.73-0.4,8.61-0.06c2.56-0.37,5.1-0.59,7.64-0.74
		c5.07-5.66,8.92-11.99,8.83-11.99C44.95,189.6,30.89,190.5,30.74,190.35z"/>
	<path class="st0" d="M19.52,195.69c0,0,4.98,0.7,4.59-1.3c0.2,0,0.03-2.31-1.78-1.36c-1.81,0.95-3.57,2.01-3.57,2.01
		S18.42,196.19,19.52,195.69z"/>
	<path class="st0" d="M31.19,191.1c0,0,1.6,3.21-2.02,3.69c-0.17,0-3.49,0.81-5.07,0.06c-0.04,0.11,0.56-2.84,0.46-2.8
		c-0.1,0.04,6.18-1.7,6.18-1.7L31.19,191.1z"/>
	<path class="st0" d="M38.47,193.39c0,0,0.93,2.27-3.89,1.77s-3.3-1.62-3.35-2.37c-0.05-0.76-0.54-2.39,1.45-2.44
		S38.17,191.5,38.47,193.39z"/>
	<path class="st0" d="M42.96,196.38c0,0-5.94,0.91-4.42-4.03c0.12,0.06,4.54,2.73,5.39,3.46C44.78,196.54,42.96,196.38,42.96,196.38
		z"/>
	<path class="st0" d="M100.53,223.12c2.04,0.06,4.09,0.07,6.14,0.09c4.59-0.41,9.32-0.69,13.96-0.5c2.04-4.28,3.27-8.2,3.27-10.96
		c0-5.39-3.44-21.39-5.83-25.73c-2.39-4.34-5.39-5.98-11.07-4.94c-5.68,1.05-7.03,0.6-7.03,0.75c-2.09-2.09-9.87-1.8-14.81,0.9
		c-4.94,2.69-13.76,25.58-13.76,25.58c0.08,1.99,1.94,8.58,4.44,15.04C84.07,223.3,92.27,222.88,100.53,223.12z"/>
	<path class="st0" d="M100.53,223.12c2.04,0.06,4.09,0.07,6.14,0.09c2.27-0.2,4.59-0.37,6.9-0.47c5.29-5.78,9.38-12.5,9.28-12.5
		c-9.42-20.64-23.49-19.75-23.64-19.9c-16.46,2.69-24.53,17.95-24.53,17.95c1.24,5.28,4.98,10.92,8.09,14.95
		C88.68,223.12,94.59,222.95,100.53,223.12z"/>
	<path class="st0" d="M88,195.69c0,0,4.98,0.7,4.59-1.3c0.2,0,0.03-2.31-1.78-1.36c-1.81,0.95-3.57,2.01-3.57,2.01
		S86.9,196.19,88,195.69z"/>
	<path class="st0" d="M99.67,191.1c0,0,1.6,3.21-2.02,3.69c-0.17,0-3.49,0.81-5.07,0.06c-0.04,0.11,0.56-2.84,0.46-2.8
		c-0.1,0.04,6.18-1.7,6.18-1.7L99.67,191.1z"/>
	<path class="st0" d="M106.95,193.39c0,0,0.93,2.27-3.89,1.77c-4.82-0.49-3.3-1.62-3.35-2.37c-0.05-0.76-0.54-2.39,1.45-2.44
		C103.16,190.3,106.65,191.5,106.95,193.39z"/>
	<path class="st0" d="M111.43,196.38c0,0-5.94,0.91-4.42-4.03c0.12,0.06,4.54,2.73,5.39,3.46
		C113.26,196.54,111.43,196.38,111.43,196.38z"/>
	<path class="st0" d="M189.15,222.62c2.02-4.25,3.23-8.13,3.23-10.87c0-5.39-3.44-21.39-5.83-25.73c-2.39-4.34-5.39-5.98-11.07-4.94
		c-5.68,1.05-7.03,0.6-7.03,0.75c-2.09-2.09-9.87-1.8-14.81,0.9c-4.94,2.69-13.76,25.58-13.76,25.58c0.08,1.93,1.83,8.18,4.21,14.45
		C159.12,222.55,174.14,221.62,189.15,222.62z"/>
	<path class="st0" d="M182.46,222.29c5.09-5.67,8.96-12.04,8.87-12.04c-9.42-20.64-23.49-19.75-23.64-19.9
		c-16.46,2.69-24.53,17.95-24.53,17.95c1.18,5.02,4.61,10.35,7.61,14.33C161.34,222.37,171.9,221.96,182.46,222.29z"/>
	<path class="st0" d="M156.47,195.69c0,0,4.98,0.7,4.59-1.3c0.2,0,0.03-2.31-1.78-1.36c-1.81,0.95-3.57,2.01-3.57,2.01
		S155.38,196.19,156.47,195.69z"/>
	<path class="st0" d="M168.14,191.1c0,0,1.6,3.21-2.02,3.69c-0.17,0-3.49,0.81-5.07,0.06c-0.04,0.11,0.56-2.84,0.46-2.8
		c-0.1,0.04,6.18-1.7,6.18-1.7L168.14,191.1z"/>
	<path class="st0" d="M175.42,193.39c0,0,0.93,2.27-3.89,1.77c-4.82-0.49-3.3-1.62-3.35-2.37c-0.05-0.76-0.54-2.39,1.45-2.44
		C171.63,190.3,175.12,191.5,175.42,193.39z"/>
	<path class="st0" d="M179.91,196.38c0,0-5.94,0.91-4.42-4.03c0.12,0.06,4.54,2.73,5.39,3.46
		C181.73,196.54,179.91,196.38,179.91,196.38z"/>
	<path class="st0" d="M237.08,222.31c6.63,0.23,13.22,0.7,19.83,0.67c0.19-0.02,0.38-0.04,0.57-0.06c2.1-4.36,3.37-8.36,3.37-11.17
		c0-5.39-3.44-21.39-5.83-25.73c-2.39-4.34-5.39-5.98-11.07-4.94c-5.68,1.05-7.03,0.6-7.03,0.75c-2.09-2.09-9.87-1.8-14.81,0.9
		c-4.94,2.69-13.76,25.58-13.76,25.58c0.08,1.91,1.8,8.05,4.14,14.26C220.69,222.42,228.88,222.03,237.08,222.31z"/>
	<path class="st0" d="M237.08,222.31c4.46,0.15,8.9,0.4,13.34,0.55c5.35-5.8,9.49-12.61,9.39-12.61
		c-9.42-20.64-23.49-19.75-23.64-19.9c-16.46,2.69-24.53,17.95-24.53,17.95c1.16,4.93,4.49,10.17,7.46,14.12
		C225.09,222.27,231.08,222.1,237.08,222.31z"/>
	<path class="st0" d="M224.95,195.69c0,0,4.98,0.7,4.59-1.3c0.2,0,0.03-2.31-1.78-1.36c-1.81,0.95-3.57,2.01-3.57,2.01
		S223.86,196.19,224.95,195.69z"/>
	<path class="st0" d="M236.62,191.1c0,0,1.6,3.21-2.02,3.69c-0.17,0-3.49,0.81-5.07,0.06c-0.04,0.11,0.56-2.84,0.46-2.8
		c-0.1,0.04,6.18-1.7,6.18-1.7L236.62,191.1z"/>
	<path class="st0" d="M243.9,193.39c0,0,0.93,2.27-3.89,1.77c-4.82-0.49-3.3-1.62-3.35-2.37c-0.05-0.76-0.54-2.39,1.45-2.44
		C240.11,190.3,243.6,191.5,243.9,193.39z"/>
	<path class="st0" d="M248.39,196.38c0,0-5.94,0.91-4.42-4.03c0.12,0.06,4.54,2.73,5.39,3.46
		C250.21,196.54,248.39,196.38,248.39,196.38z"/>
	<path class="st0" d="M290.15,223.07c10.38,0.22,20.77,0.29,31.16,0.25c1.54-0.13,3.08-0.25,4.63-0.34
		c2.12-4.39,3.41-8.42,3.41-11.24c0-5.39-3.44-21.39-5.83-25.73c-2.39-4.34-5.39-5.98-11.07-4.94c-5.68,1.05-7.03,0.6-7.03,0.75
		c-2.09-2.09-9.87-1.8-14.81,0.9c-4.94,2.69-13.76,25.58-13.76,25.58c0.08,1.92,1.81,8.1,4.17,14.32
		C284.4,222.6,287.85,223.02,290.15,223.07z"/>
	<path class="st0" d="M290.15,223.07c9.44,0.2,18.89,0.27,28.33,0.25c5.55-5.89,9.91-13.07,9.81-13.07
		c-9.42-20.64-23.49-19.75-23.64-19.9c-16.46,2.69-24.53,17.95-24.53,17.95c1.21,5.16,4.8,10.65,7.86,14.65
		C288.77,223.01,289.51,223.05,290.15,223.07z"/>
	<path class="st0" d="M293.43,195.69c0,0,4.98,0.7,4.59-1.3c0.2,0,0.03-2.31-1.78-1.36c-1.81,0.95-3.57,2.01-3.57,2.01
		S292.33,196.19,293.43,195.69z"/>
	<path class="st0" d="M305.1,191.1c0,0,1.6,3.21-2.02,3.69c-0.17,0-3.49,0.81-5.07,0.06c-0.04,0.11,0.56-2.84,0.46-2.8
		c-0.1,0.04,6.18-1.7,6.18-1.7L305.1,191.1z"/>
	<path class="st0" d="M312.38,193.39c0,0,0.93,2.27-3.89,1.77s-3.3-1.62-3.35-2.37c-0.05-0.76-0.54-2.39,1.45-2.44
		S312.08,191.5,312.38,193.39z"/>
	<path class="st0" d="M316.87,196.38c0,0-5.94,0.91-4.42-4.03c0.12,0.06,4.54,2.73,5.39,3.46
		C318.69,196.54,316.87,196.38,316.87,196.38z"/>
	<path class="st0" d="M376.92,222.81c3.88-0.02,9.01-0.7,13.82-0.38c-0.09-3.08-0.11-6.17-0.27-9.18c-0.52-9.92-1.74-19.71,0-29.44
		c-2.18-2.64-5-3.57-9.56-2.72c-5.68,1.05-7.03,0.6-7.03,0.75c-2.09-2.09-9.87-1.8-14.81,0.9c-4.94,2.69-13.76,25.58-13.76,25.58
		c0.08,1.94,1.84,8.21,4.23,14.49C358.37,221.35,368.43,222.85,376.92,222.81z"/>
	<path class="st0" d="M376.92,222.81c3.1-0.01,7.01-0.45,10.92-0.46c0.99-1.1,1.94-2.22,2.81-3.33c-0.04-1.94-0.08-3.87-0.18-5.78
		c-0.25-4.76-0.66-9.5-0.83-14.21c-8.11-9.06-16.4-8.57-16.51-8.68c-16.46,2.69-24.53,17.95-24.53,17.95
		c1.13,4.84,4.37,9.97,7.29,13.9C362.98,221.96,370.41,222.84,376.92,222.81z"/>
	<path class="st0" d="M361.91,195.69c0,0,4.98,0.7,4.59-1.3c0.2,0,0.03-2.31-1.78-1.36c-1.81,0.95-3.57,2.01-3.57,2.01
		S360.81,196.19,361.91,195.69z"/>
	<path class="st0" d="M373.58,191.1c0,0,1.6,3.21-2.02,3.69c-0.17,0-3.49,0.81-5.07,0.06c-0.04,0.11,0.56-2.84,0.46-2.8
		c-0.1,0.04,6.18-1.7,6.18-1.7L373.58,191.1z"/>
	<path class="st0" d="M380.86,193.39c0,0,0.93,2.27-3.89,1.77c-4.82-0.49-3.3-1.62-3.35-2.37c-0.05-0.76-0.54-2.39,1.45-2.44
		C377.07,190.3,380.56,191.5,380.86,193.39z"/>
	<path class="st0" d="M385.35,196.38c0,0-5.94,0.91-4.42-4.03c0.12,0.06,4.54,2.73,5.39,3.46
		C387.17,196.54,385.35,196.38,385.35,196.38z"/>
</g>
</svg>
